<svg xmlns="http://www.w3.org/2000/svg" viewBox="0 0 37.8 37.64"><title>logo_head</title><path d="M250.6,127.24v0l4-5.5h.26l-.11-.21h0c.38.49.77,1,1.13,1.48.52.68.84,1.49,1.31,2.21a14.59,14.59,0,0,0,1.59,2l0,0a14.6,14.6,0,0,0-1.26-2.25c-.48-.71-1.11-1.31-1.54-2.06s-.82-1.51-1.3-2.22a20.19,20.19,0,0,0-1.48-2.1l-.08-.1h-.09c-.56,0-1.12.09-1.68.18v.05c.52.08,1,.13,1.56.17a20.09,20.09,0,0,0,1.37,2.06l.11.15-.1.14h-5.76c.42-.07.84-.21,1.27-.32h0v-.24h0a12,12,0,0,0-1.41-.35,3.92,3.92,0,0,0-1.41.09h0v.76h0a4,4,0,0,0,1.12.1l-4.2,6h6.66Zm-3.21-.21c-1.1.09-2.24.16-3.4.2.77-1,1.56-2,2.33-3l2-2.63c1.05,0,2.11,0,3.16,0l2.47,0L252.38,124c-.67,1-1.34,1.9-2,2.87C249.4,126.91,248.41,127,247.39,127Z" transform="translate(-232.86 -110.12)" fill="none"/><path d="M256.31,137.63a30,30,0,0,1-4.91.53,25.69,25.69,0,0,1-5-.44,23.34,23.34,0,0,1-4.8-1.36l0,.07a23.54,23.54,0,0,0,4.76,1.66,25.92,25.92,0,0,0,5,.67,19.47,19.47,0,0,0,5.07-.38,13.84,13.84,0,0,0,4.68-1.95l0-.06A27.42,27.42,0,0,1,256.31,137.63Z" transform="translate(-232.86 -110.12)" fill="none"/><path d="M247.24,127.24h-3.3l1.88-2.68a3.22,3.22,0,1,0,1.42,2.68Z" transform="translate(-232.86 -110.12)" fill="#fff"/><path d="M258.79,124a3.18,3.18,0,0,0-1.62.45c.13.17.26.34.38.51a14.6,14.6,0,0,1,1.26,2.25l0,0a14.59,14.59,0,0,1-1.59-2c-.12-.18-.22-.36-.32-.55a3.2,3.2,0,1,0,1.93-.66Z" transform="translate(-232.86 -110.12)" fill="#fff"/><path d="M269.35,112.13a3.89,3.89,0,0,0-1.51-.8,4,4,0,0,0-.86-.14l-.53,0-4.09-.24c-2.73-.15-5.46-.34-8.18-.45s-5.46-.21-8.18-.26l-8.18-.1A5,5,0,0,0,233,114a5,5,0,0,0-.13,1.09v.54l0,4.09c0,2.73.17,5.46.26,8.18.25,5.46.62,10.91.92,16.37a3.69,3.69,0,0,0,1.46,2.81,3.57,3.57,0,0,0,2.23.71l.53,0,4.09-.24c2.73-.15,5.46-.34,8.18-.45s5.46-.21,8.18-.26l8.18-.1a2.48,2.48,0,0,0,1.92-.89,2.5,2.5,0,0,0,.49-1,4.43,4.43,0,0,0,.08-1.06l0-4.09c0-2.73.17-5.46.26-8.18.26-5.46.61-10.91.91-16.37A3.8,3.8,0,0,0,269.35,112.13Zm-12.89,26.23a19.47,19.47,0,0,1-5.07.38,25.92,25.92,0,0,1-5-.67,23.54,23.54,0,0,1-4.76-1.66l0-.07a23.34,23.34,0,0,0,4.8,1.36,25.69,25.69,0,0,0,5,.44,30,30,0,0,0,4.91-.53,27.42,27.42,0,0,0,4.8-1.27l0,.06A13.84,13.84,0,0,1,256.46,138.37Zm2.33-5.94a5.21,5.21,0,0,1-3-9.51c-.35-.48-.72-.94-1.08-1.41h0l.11.21h-.26l-4,5.5v0h-1.35a5.23,5.23,0,1,1-2.27-4.31l1.17-1.66a4,4,0,0,1-1.12-.1h0v-.76h0a3.92,3.92,0,0,1,1.41-.09,12,12,0,0,1,1.41.35h0v.24h0c-.42.1-.84.25-1.27.32h5.76l.1-.14-.11-.15a20.09,20.09,0,0,1-1.37-2.06c-.52,0-1-.09-1.56-.17v-.05c.56-.09,1.12-.15,1.68-.18h.09l.08.1a20.19,20.19,0,0,1,1.48,2.1c.47.69.83,1.44,1.26,2.15a5.22,5.22,0,1,1,2.81,9.61Z" transform="translate(-232.86 -110.12)" fill="#fff"/><path d="M245.95,124.72c-.65.81-1.32,1.64-2,2.5,1.08,0,2.15-.1,3.18-.18A3.2,3.2,0,0,0,245.95,124.72Z" transform="translate(-232.86 -110.12)" fill="#fff"/><path d="M251.52,121.69c-1.05,0-2.11,0-3.16,0l-1.18,1.52a5.19,5.19,0,0,1,2,3.78l1.24-.07c.64-1,1.32-1.92,2-2.87l1.61-2.28Z" transform="translate(-232.86 -110.12)" fill="#fff"/></svg>